HIERARCHY
ROOT SimulationBone
{
	OFFSET 0.000000 0.000000 0.000000
	CHANNELS 6 Xposition Yposition Zposition Zrotation Yrotation Xrotation 
	JOINT Hips
	{
		OFFSET 0.000000 0.000000 0.000000
		CHANNELS 6 Xposition Yposition Zposition Zrotation Yrotation Xrotation 
		JOINT LeftUpLeg
		{
			OFFSET 0.103459 1.857839 10.548500
			CHANNELS 3 Zrotation Yrotation Xrotation
			JOINT LeftLeg
			{
				OFFSET 43.500004 -0.000053 -0.000011
				CHANNELS 3 Zrotation Yrotation Xrotation
				JOINT LeftFoot
				{
					OFFSET 42.372192 0.000015 -0.000008
					CHANNELS 3 Zrotation Yrotation Xrotation
					JOINT LeftToe
					{
						OFFSET 17.300007 0.000002 0.000013
						CHANNELS 3 Zrotation Yrotation Xrotation
						End Site
						{
							OFFSET 0.000000 0.000000 0.000000
						}
					}
				}
			}
		}
		JOINT RightUpLeg
		{
			OFFSET 0.103460 1.857826 -10.548500
			CHANNELS 3 Zrotation Yrotation Xrotation
			JOINT RightLeg
			{
				OFFSET 43.500046 -0.000019 0.000011
				CHANNELS 3 Zrotation Yrotation Xrotation
				JOINT RightFoot
				{
					OFFSET 42.372261 0.000004 0.000012
					CHANNELS 3 Zrotation Yrotation Xrotation
					JOINT RightToe
					{
						OFFSET 17.299995 -0.000004 0.000006
						CHANNELS 3 Zrotation Yrotation Xrotation
						End Site
						{
							OFFSET 0.000000 0.000000 0.000000
						}
					}
				}
			}
		}
		JOINT Spine
		{
			OFFSET 6.901963 -2.603745 -0.000005
			CHANNELS 3 Zrotation Yrotation Xrotation
			JOINT Spine1
			{
				OFFSET 12.588102 0.000012 0.000012
				CHANNELS 3 Zrotation Yrotation Xrotation
				JOINT Spine2
				{
					OFFSET 12.343202 0.000010 -0.000009
					CHANNELS 3 Zrotation Yrotation Xrotation
					JOINT Neck
					{
						OFFSET 25.832901 -0.000008 0.000006
						CHANNELS 3 Zrotation Yrotation Xrotation
						JOINT Head
						{
							OFFSET 11.766603 0.000007 -0.000001
							CHANNELS 3 Zrotation Yrotation Xrotation
							End Site
							{
								OFFSET 0.000000 0.000000 0.000000
							}
						}
					}
					JOINT LeftShoulder
					{
						OFFSET 19.745903 -1.480391 6.000108
						CHANNELS 3 Zrotation Yrotation Xrotation
						JOINT LeftArm
						{
							OFFSET 11.284125 -0.000031 -0.000021
							CHANNELS 3 Zrotation Yrotation Xrotation
							JOINT LeftForeArm
							{
								OFFSET 33.000046 0.000024 0.000034
								CHANNELS 3 Zrotation Yrotation Xrotation
								JOINT LeftHand
								{
									OFFSET 25.200014 0.000020 0.000007
									CHANNELS 3 Zrotation Yrotation Xrotation
									End Site
									{
										OFFSET 0.000000 0.000000 0.000000
									}
								}
							}
						}
					}
					JOINT RightShoulder
					{
						OFFSET 19.746098 -1.480371 -6.000075
						CHANNELS 3 Zrotation Yrotation Xrotation
						JOINT RightArm
						{
							OFFSET 11.284128 -0.000021 -0.000009
							CHANNELS 3 Zrotation Yrotation Xrotation
							JOINT RightForeArm
							{
								OFFSET 33.000095 0.000034 0.000006
								CHANNELS 3 Zrotation Yrotation Xrotation
								JOINT RightHand
								{
									OFFSET 25.199781 0.000147 0.000427
									CHANNELS 3 Zrotation Yrotation Xrotation
									End Site
									{
										OFFSET 0.000000 0.000000 0.000000
									}
								}
							}
						}
					}
				}
			}
		}
	}
}
MOTION
Frames: 6
Frame Time: 0.016667
75.623170 0.000000 347.731691 180.000000 -1.413580 180.000000 -2.665621 86.343667 -0.419570 87.065780 0.450070 -179.663752 -178.484002 -7.275109 165.762475 -50.057115 2.347902 3.168586 70.452815 -4.435251 -6.299294 21.454553 0.003093 -0.000001 146.538914 -3.213782 -174.887572 -35.098198 -1.694820 5.411832 81.252320 -4.274319 -2.052769 21.454558 -0.003106 -0.000017 6.955091 0.791008 -1.568739 3.875572 1.633420 -3.110732 3.557836 1.614751 -3.120526 0.648666 1.248375 -6.782616 -19.153395 -0.401055 -6.563471 -175.010503 -83.417865 -6.622264 -36.012480 55.976134 11.491700 -47.811629 -17.473834 1.844303 5.471345 -9.130074 6.781792 -166.298589 76.614608 15.426231 18.896232 -59.134194 -41.459164 -30.972060 11.115427 -1.024383 10.580536 -2.304343 -9.996897 
73.666941 0.000000 347.623589 180.000000 -1.293909 180.000000 -2.600114 86.654839 -0.361119 87.084461 0.755008 -179.767674 178.929701 -8.119003 166.430919 -55.426076 2.707987 2.354854 67.024502 -4.353848 -6.989225 21.454550 0.003092 -0.000001 147.895041 -3.610702 -174.107451 -35.236088 -1.909434 4.972744 82.758130 -3.972429 -2.271372 21.454560 -0.003106 -0.000017 6.940513 0.854754 -1.435971 3.846854 1.756129 -2.843405 3.529019 1.739070 -2.853947 0.866134 1.096027 -6.966124 -18.700901 -0.198329 -6.864721 -172.409683 -83.278902 -9.249771 -35.592385 56.781126 12.755717 -46.019898 -17.007349 1.759271 5.732293 -8.250337 5.780457 -166.496679 76.798102 15.223280 18.090527 -59.166293 -41.382934 -31.919307 11.369073 -1.059873 10.351781 -2.227066 -9.632657 
71.709533 0.000000 347.525215 180.000000 -1.130915 180.000000 -2.579854 87.033857 -0.292862 87.121912 0.969181 -179.740000 176.092058 -8.702686 167.207966 -60.474999 3.063245 1.167471 64.677118 -3.808089 -7.307190 21.454542 0.003093 -0.000001 149.479829 -3.899465 -173.298217 -34.931219 -2.162064 4.509414 84.054797 -3.631435 -2.377015 21.454559 -0.003108 -0.000018 6.933702 0.892652 -1.307644 3.834436 1.827550 -2.585677 3.516504 1.812043 -2.596657 1.056058 0.878257 -7.191025 -18.042765 0.125287 -7.261931 -170.495012 -83.066945 -11.184525 -35.301334 57.354592 14.141595 -43.931974 -16.468257 1.664435 6.113077 -7.160293 4.586062 -166.507066 76.819440 15.212615 16.935694 -59.065988 -40.872400 -32.970290 11.638376 -1.098477 10.187199 -2.304480 -9.456947 
69.746318 0.000000 347.444043 180.000000 -0.926980 180.000000 -2.617821 87.456078 -0.218149 87.118693 1.118649 -179.606727 173.009197 -9.056703 168.107853 -65.088355 3.273140 -0.115035 63.998346 -2.894516 -7.189635 21.454539 0.003094 0.000000 151.163929 -4.149903 -172.711087 -34.285821 -2.370201 4.156891 85.139898 -3.342838 -2.333662 21.454558 -0.003109 -0.000018 6.915741 0.911099 -1.182403 3.800198 1.859992 -2.334923 3.482182 1.845997 -2.346105 1.325774 0.641261 -7.436984 -17.337160 0.494083 -7.696701 -169.547232 -82.836635 -12.142489 -34.958277 57.795385 15.509076 -41.664877 -15.724140 1.549614 6.647860 -6.210787 3.495179 -166.488906 76.714829 15.231463 15.462685 -58.815966 -40.013846 -34.021021 11.814310 -1.133546 9.972882 -2.143496 -9.324506 
67.773883 0.000000 347.381253 180.000000 -0.685802 180.000000 -2.709204 87.899690 -0.150997 87.017734 1.227464 -179.418514 169.709732 -9.203174 169.162366 -69.167787 3.241729 -1.227813 65.293875 -1.806475 -6.701386 21.454545 0.003094 0.000000 152.832686 -4.408340 -172.553565 -33.401627 -2.468051 4.011074 86.032245 -3.178490 -2.152248 21.454557 -0.003109 -0.000018 6.867519 0.915723 -1.055751 3.705764 1.864285 -2.082289 3.387689 1.851815 -2.093503 1.762943 0.435432 -7.685342 -16.742302 0.820916 -8.111283 -169.372780 -82.648407 -12.318613 -34.417940 58.231315 16.704492 -39.354580 -14.679161 1.416993 7.328074 -5.641374 2.826405 -166.515120 76.540820 15.205147 13.742771 -58.429495 -38.982265 -34.997357 11.830226 -1.157668 9.603658 -1.369923 -9.034567 
65.790553 0.000000 347.334998 180.000000 -0.408683 180.000000 -2.808188 88.371750 -0.108131 86.871075 1.215396 -179.268248 166.442462 -9.112001 170.077516 -72.472179 3.098700 -2.225141 67.542244 -0.838316 -6.435354 21.454555 0.003093 -0.000000 154.567973 -4.586197 -172.809482 -32.284524 -2.459404 3.994214 86.767778 -3.101056 -1.912424 21.454558 -0.003108 -0.000017 6.803787 0.886124 -0.920252 3.580951 1.799849 -1.813240 3.262843 1.789005 -1.824072 2.284420 0.272817 -7.940001 -16.251679 1.081819 -8.498828 -169.430695 -82.565223 -12.259831 -33.655309 58.790660 17.702005 -37.112802 -13.520142 1.288697 7.998166 -5.098280 2.637983 -166.482595 76.311977 15.239027 11.861756 -58.021376 -37.836351 -35.864957 11.878691 -1.179500 9.219095 -0.228134 -8.636265 
